<svg id="Layer_1" data-name="Layer 1" xmlns="http://www.w3.org/2000/svg" width="98.1345" height="98.1474" viewBox="0 0 98.1345 98.1474"><defs><style>.cls-1{fill:#8000ff;}</style></defs><title>keppa-logo-01</title><path class="cls-1" d="M0,98.1474H98.1345V0H0ZM29.2362,62.2187H48.2038c.1366,0,.2733.0057.41.0006a.4247.4247,0,0,1,.46.4589c.0025.1229.003.2458.003.3687q0,3.6255.0008,7.2511a4.0059,4.0059,0,0,0,.0153.4087.2375.2375,0,0,0,.2079.2224,2.3727,2.3727,0,0,0,.3661.0289c2.2393.01,4.4786.0112,6.7177.0337a1.4891,1.4891,0,0,0,1.216-.5281c1.9-2.0927,3.8236-4.164,5.74-6.2421.5-.5421,1.0048-1.0795,1.5009-1.625a1.1442,1.1442,0,0,1,.6934-.4,3.5371,3.5371,0,0,1,.49-.0239q7.5584-.0039,15.1167-.0054c.1229,0,.2463-.0044.3686.0044a.7939.7939,0,0,1,.2377.051.3689.3689,0,0,1,.1807.57,2.3578,2.3578,0,0,1-.24.2789q-3.2764,3.5543-6.5534,7.1079a3.1152,3.1152,0,0,0-.2431.2766.2979.2979,0,0,0,.1905.4981,2.4826,2.4826,0,0,0,.4884.0307q6.1041.0022,12.2082.0015c.15,0,.3011-.0044.45.01a.3629.3629,0,0,1,.3479.341,3.0089,3.0089,0,0,1,.0107.3681q.0007,8.0909,0,16.1819c0,.0955.003.1914-.0035.2866-.0187.2755-.1277.401-.3958.4287a5.6031,5.6031,0,0,1-.5726.0184q-5.92.0015-11.8394.0007-3.093,0-6.186-.0008a4.09,4.09,0,0,1-.49-.021.3839.3839,0,0,1-.3729-.3686,3.1831,3.1831,0,0,1-.0115-.409q-.0008-3.6255-.0007-7.2511c0-.1365.0035-.2737-.009-.4093a.2715.2715,0,0,0-.2636-.2627,3.6751,3.6751,0,0,0-.3683-.01q-18.7628,0-37.5256,0c-.1092,0-.2184.0046-.3276.0051a.2857.2857,0,0,0-.2752.2067.2718.2718,0,0,0,.0742.3007c.0943.0983.1961.19.2982.28q3.97,3.5187,7.94,7.037a2.19,2.19,0,0,1,.2654.2544.37.37,0,0,1-.2448.6149,3.3784,3.3784,0,0,1-.4091.0094q-13.8264,0-27.6526,0c-.0956,0-.1913.0019-.2868-.0011-.37-.0116-.48-.1165-.5036-.493-.01-.15-.0052-.3-.0052-.4505q0-12.2491,0-24.4982c0-.1092-.0007-.2185.0012-.3277a1.7624,1.7624,0,0,1,.011-.2044c.0378-.2785.147-.3834.4249-.4.1361-.0082.273-.0038.4095-.0038Z"/></svg>