<svg id="Layer_1" data-name="Layer 1" xmlns="http://www.w3.org/2000/svg" width="66.0064" height="66.0151" viewBox="0 0 66.0064 66.0151"><defs><style>.cls-1{fill:#8000ff;}</style></defs><title>keppa-logo-01</title><path class="cls-1" d="M0,66.1978H66.1891V0H0Zm19.719-24.233H32.5122c.0921,0,.1843.0038.2763,0a.2865.2865,0,0,1,.31.3095c.0017.0829.002.1658.002.2487q0,2.4453,0,4.8907a2.7253,2.7253,0,0,0,.01.2757.16.16,0,0,0,.14.15,1.594,1.594,0,0,0,.2469.02c1.51.007,3.0207.0076,4.531.0227a1.0042,1.0042,0,0,0,.82-.3561c1.2815-1.4115,2.5789-2.8085,3.8712-4.21.3372-.3657.6778-.7281,1.0124-1.0961a.7711.7711,0,0,1,.4677-.27,2.3769,2.3769,0,0,1,.33-.0161q5.0979-.0027,10.1958-.0037c.0829,0,.1661-.003.2486.003a.5334.5334,0,0,1,.16.0343.2489.2489,0,0,1,.1219.3846,1.59,1.59,0,0,1-.1616.1882q-2.21,2.3972-4.42,4.794a2.1407,2.1407,0,0,0-.1639.1866.201.201,0,0,0,.1285.336,1.6811,1.6811,0,0,0,.3294.0207q4.1171.0015,8.2341.001c.1012,0,.2031-.003.3036.0066a.2447.2447,0,0,1,.2346.23,2.0119,2.0119,0,0,1,.0073.2482q0,5.4571,0,10.9143c0,.0645.002.1291-.0024.1934-.0126.1857-.0861.27-.2669.289a3.7685,3.7685,0,0,1-.3863.0125q-3.9926.0009-7.9853,0-2.0862,0-4.1723-.0006a2.7854,2.7854,0,0,1-.3308-.0141.259.259,0,0,1-.2515-.2487,2.1289,2.1289,0,0,1-.0077-.2758q-.0006-2.4453-.0005-4.8907c0-.0921.0023-.1846-.0061-.276a.1829.1829,0,0,0-.1778-.1772,2.4766,2.4766,0,0,0-.2484-.0067q-12.6549,0-25.31,0c-.0736,0-.1473.0031-.221.0035a.1927.1927,0,0,0-.1855.1393.1833.1833,0,0,0,.05.2029c.0636.0663.1323.128.2011.189q2.6777,2.3733,5.3556,4.7463a1.4775,1.4775,0,0,1,.1791.1716.25.25,0,0,1-.1651.4148,2.2858,2.2858,0,0,1-.276.0063q-9.3255,0-18.6509,0c-.0645,0-.129.0012-.1934-.0008-.25-.0078-.3235-.0786-.34-.3325-.0065-.101-.0035-.2026-.0035-.3039q0-8.2615,0-16.5233c0-.0737,0-.1474.0008-.2211a1.1736,1.1736,0,0,1,.0075-.1378c.0254-.1878.0991-.2586.2865-.27.0918-.0056.1841-.0026.2762-.0026Z"/></svg>